# xmcd
# 
# Track frame offsets:
#     150
#     17247
#     33213
#     51363
#     67808
#     82536
#     103844
#     119642
#     137414
#     160090
#     175092
#     193898
#     208645
#     228191
# 
# Disc length: 3213
# 
# Revision: 3
# Processed by: cddbd v1.5.2PL0 Copyright (c) Steve Scherf et al.
# Submitted via: BonkEnc v1.0.15
# 
DISCID=b10c8b0e
DTITLE=Bill Wyman's Rhythm Kings - Just For A Thrill
DYEAR=2004
DGENRE=Blues
TTITLE0=Disappearing Nightly
TTITLE1=Roll 'em Pete
TTITLE2=Down Home Girl
TTITLE3=Mississippi Flyer
TTITLE4=That's How Heartaches Are Made
TTITLE5=Booty Ooty
TTITLE6=Cadillac Woman
TTITLE7=Town Living
TTITLE8=This Ain't United Nations
TTITLE9=Memphis Woman
TTITLE10=Taxman
TTITLE11=Just For A Thrill
TTITLE12=Cry Baby
TTITLE13=You Don't Know
EXTD=YEAR: 2004
EXTT0=
EXTT1=
EXTT2=
EXTT3=
EXTT4=
EXTT5=
EXTT6=
EXTT7=
EXTT8=
EXTT9=
EXTT10=
EXTT11=
EXTT12=
EXTT13=
PLAYORDER=
